<?xml version="1.0" ?><svg width="512px" height="512px" viewBox="0 0 512 512" xmlns="http://www.w3.org/2000/svg"><defs><style>.cls-1{fill:#cbeee1;}.cls-2{fill:#f19ec3;}</style></defs><title/><g data-name="Layer 3" id="Layer_3"><polygon class="cls-1" points="193 131 257 97 399 168 332 200 193 131"/><polygon class="cls-2" points="113 171 257 240 256 412 113 340 113 171"/><path d="M409.76,167.9a8.71,8.71,0,0,0-.84-3.72,8.13,8.13,0,0,0-5.68-4.49L260.29,90.36a8.48,8.48,0,0,0-7.37,0l-144.35,70a8.45,8.45,0,0,0-4.77,7.3V343.55a8.36,8.36,0,0,0,4.77,7.58l144.35,70c.07,0,.07,0,.14.07a2.49,2.49,0,0,1,.63.28c.07,0,.14.07.28.07l.63.21c.07,0,.14.07.21.07s.49.07.7.14h.21c.28,0,.63.07.91.07a4,4,0,0,0,.91-.07h.21a2.49,2.49,0,0,0,.7-.14c.07,0,.14-.07.21-.07l.63-.21c.07,0,.14-.07.28-.07a2.49,2.49,0,0,0,.63-.28c.07,0,.07,0,.14-.07l144.77-70.17a8.49,8.49,0,0,0,4.77-7.58V168.11C409.76,168,409.76,168,409.76,167.9ZM256.57,107.27,381.76,168l-46.1,22.39-125.19-60.7Zm0,121.4L131.38,168l59.79-29,125.19,60.7ZM120.64,181.51l127.51,61.82V400L120.64,338.21ZM265,400V243.34l59.86-29.05v41a8.42,8.42,0,0,0,16.84,0V206.07l51.23-24.84v156.7Z"/></g></svg>